<svg width="27" height="36" viewBox="0 0 27 36" fill="none" xmlns="http://www.w3.org/2000/svg">
<path d="M14.2759 35.7507H0V0.761475H14.2344C20.9711 0.761475 25.4115 4.49996 25.4115 9.95534C25.4019 11.5556 24.9308 13.1191 24.0547 14.4578C23.1786 15.7965 21.935 16.8534 20.4731 17.5015C22.2387 18.1089 23.775 19.2451 24.8737 20.756C25.9724 22.2668 26.5802 24.0793 26.615 25.9477C26.615 31.7908 21.7182 35.7507 14.2759 35.7507Z" fill="#1A1A1A"/>
<path d="M8.94995 29.3816H12.851C15.6176 29.3816 17.2085 27.8446 17.2085 25.8092C17.2085 23.7739 15.5347 22.2369 13.0585 22.2369H9.19902V9.51233H13.1276" stroke="#F2F2F2" stroke-width="0.25" stroke-miterlimit="10"/>
</svg>
