<svg width="28" height="36" viewBox="0 0 28 36" fill="none" xmlns="http://www.w3.org/2000/svg">
<path d="M27.087 10.1077C26.449 8.17644 25.3744 6.41856 23.9469 4.9708C22.5246 3.50315 20.7889 2.37656 18.87 1.67541C17.3924 1.12105 15.8278 0.835053 14.2498 0.830811C12.6538 0.835235 11.0711 1.12113 9.57419 1.67541C7.64277 2.37573 5.89339 3.502 4.45582 4.9708C3.0283 6.41856 1.95387 8.17644 1.31583 10.1077C-0.0674838 14.1231 0.485708 18.4985 0.485708 22.6662V34.6154C0.485708 34.837 0.485728 35.4323 0.679392 35.5708C0.873056 35.7092 0.997521 36 1.16352 36H27.2805C27.4465 36 27.6127 35.6815 27.751 35.5708C27.8893 35.46 27.9308 35.0031 27.9308 34.7677C27.9308 30.7939 27.9308 26.7231 27.9308 22.7493C27.9308 18.7754 28.4012 14.1231 27.087 10.1077Z" fill="#1A1A1A"/>
</svg>
