<svg width="36" height="36" viewBox="0 0 36 36" fill="none" xmlns="http://www.w3.org/2000/svg">
<path d="M11.3109 34.2139C9.24737 33.316 7.37046 32.0385 5.77767 30.4477C4.18491 28.8533 2.9041 26.9749 2.00125 24.9092C1.0857 22.7454 0.61523 20.4191 0.617932 18.0692C0.615194 15.7238 1.0857 13.4021 2.00125 11.2431C2.90238 9.17648 4.18339 7.29773 5.77767 5.70464C7.36322 4.10857 9.24213 2.83443 11.3109 1.95234C13.4662 1.03039 15.7868 0.559205 18.1306 0.567724C20.4745 0.557639 22.7957 1.02889 24.9504 1.95234C27.0167 2.83898 28.8948 4.11257 30.4837 5.70464C32.0712 7.29466 33.339 9.1748 34.2186 11.2431C35.1397 13.4003 35.6104 15.7233 35.6019 18.0692C35.6107 20.4197 35.14 22.7473 34.2186 24.9092C33.3357 26.9757 32.0683 28.8553 30.4837 30.4477C28.8882 32.0353 27.0119 33.3123 24.9504 34.2139C22.7938 35.1314 20.4739 35.6024 18.1306 35.5985C15.7874 35.6012 13.4679 35.1303 11.3109 34.2139Z" fill="#1A1A1A"/>
</svg>
