<svg width="23" height="36" viewBox="0 0 23 36" fill="none" xmlns="http://www.w3.org/2000/svg">
<path d="M12.922 19.3708C15.3952 19.3501 17.7608 18.3552 19.5066 16.6016C20.4132 15.725 21.1274 14.669 21.6037 13.5009C22.08 12.3328 22.3081 11.0781 22.2732 9.81695C22.2809 7.27057 21.287 4.8235 19.5066 3.00466C18.6579 2.09762 17.6374 1.36848 16.5046 0.859793C15.3718 0.351104 14.1493 0.0730024 12.9082 0.0415649H0.333861C0.0986975 0.0415649 0.817988 0.678495 0.817988 0.913879V35.28C0.817988 35.5154 0.0986975 36.0416 0.333861 36.0416H21.2219C21.3464 36.0416 21.4432 35.7785 21.5123 35.6677C21.5463 35.6013 21.564 35.5277 21.564 35.4531C21.564 35.3784 21.5463 35.3049 21.5123 35.2385L12.922 19.3708Z" fill="#1A1A1A"/>
</svg>
